<svg xmlns="http://www.w3.org/2000/svg" style="display: none;">
  <symbol id="map" viewBox="0 0 24 24">
    <path d="M12.0001 14C14.2061 14 16.0001 12.206 16.0001 10C16.0001 7.794 14.2061 6 12.0001 6C9.79406 6 8.00006 7.794 8.00006 10C8.00006 12.206 9.79406 14 12.0001 14ZM12.0001 8C13.1031 8 14.0001 8.897 14.0001 10C14.0001 11.103 13.1031 12 12.0001 12C10.8971 12 10.0001 11.103 10.0001 10C10.0001 8.897 10.8971 8 12.0001 8Z" fill="#030C01"/>
<path d="M11.4201 21.814C11.5893 21.9349 11.7921 21.9998 12.0001 21.9998C12.2081 21.9998 12.4108 21.9349 12.5801 21.814C12.8841 21.599 20.0291 16.44 20.0001 10C20.0001 5.589 16.4111 2 12.0001 2C7.58909 2 4.00009 5.589 4.00009 9.995C3.97109 16.44 11.1161 21.599 11.4201 21.814ZM12.0001 4C15.3091 4 18.0001 6.691 18.0001 10.005C18.0211 14.443 13.6121 18.428 12.0001 19.735C10.3891 18.427 5.97909 14.441 6.00009 10C6.00009 6.691 8.69109 4 12.0001 4Z" fill="#030C01"/>
  </symbol>
  <symbol id="menu" viewBox="0 0 24 24">
    <path d="M4 6H20V8H4V6ZM4 11H20V13H4V11ZM4 16H20V18H4V16Z" fill="#030C01"/>
  </symbol>
  <symbol id="X" viewBox="0 0 24 24">
    <path d="M17.1761 4.24268H19.9362L13.9061 11.0201L21 20.2427H15.4456L11.0951 14.6493L6.11723 20.2427H3.35544L9.80517 12.9935L3 4.24268H8.69545L12.6279 9.3553L17.1761 4.24268ZM16.2073 18.6181H17.7368L7.86441 5.78196H6.2232L16.2073 18.6181Z" fill="#030C01"/>
  </symbol>
  <symbol id="close_x" viewBox="0 0 24 24">
    <path d="M16.192 6.34424L11.949 10.5862L7.70697 6.34424L6.29297 7.75824L10.535 12.0002L6.29297 16.2422L7.70697 17.6562L11.949 13.4142L16.192 17.6562L17.606 16.2422L13.364 12.0002L17.606 7.75824L16.192 6.34424Z" fill="#030C01"/>
  </symbol>
  <symbol id="phone" viewBox="0 0 24 24">
    <path d="M17.7073 12.293C17.6145 12.2 17.5043 12.1263 17.383 12.076C17.2617 12.0257 17.1317 11.9998 17.0003 11.9998C16.869 11.9998 16.739 12.0257 16.6176 12.076C16.4963 12.1263 16.3861 12.2 16.2933 12.293L14.6993 13.887C13.9603 13.667 12.5813 13.167 11.7073 12.293C10.8333 11.419 10.3333 10.04 10.1133 9.30096L11.7073 7.70696C11.8003 7.61417 11.874 7.50397 11.9243 7.38265C11.9746 7.26134 12.0005 7.13129 12.0005 6.99996C12.0005 6.86862 11.9746 6.73858 11.9243 6.61726C11.874 6.49595 11.8003 6.38575 11.7073 6.29296L7.70733 2.29296C7.61455 2.20001 7.50434 2.12627 7.38303 2.07596C7.26171 2.02565 7.13167 1.99976 7.00033 1.99976C6.869 1.99976 6.73896 2.02565 6.61764 2.07596C6.49633 2.12627 6.38612 2.20001 6.29333 2.29296L3.58133 5.00496C3.20133 5.38496 2.98733 5.90696 2.99533 6.43996C3.01833 7.86396 3.39533 12.81 7.29333 16.708C11.1913 20.606 16.1373 20.982 17.5623 21.006H17.5903C18.1183 21.006 18.6173 20.798 18.9953 20.42L21.7073 17.708C21.8003 17.6152 21.874 17.505 21.9243 17.3837C21.9746 17.2623 22.0005 17.1323 22.0005 17.001C22.0005 16.8696 21.9746 16.7396 21.9243 16.6183C21.874 16.4969 21.8003 16.3867 21.7073 16.294L17.7073 12.293ZM17.5803 19.005C16.3323 18.984 12.0623 18.649 8.70733 15.293C5.34133 11.927 5.01533 7.64196 4.99533 6.41896L7.00033 4.41396L9.58633 6.99996L8.29333 8.29296C8.1758 8.41041 8.08938 8.55529 8.04189 8.71453C7.9944 8.87376 7.98733 9.04231 8.02133 9.20496C8.04533 9.31996 8.63233 12.047 10.2923 13.707C11.9523 15.367 14.6793 15.954 14.7943 15.978C14.9569 16.0129 15.1256 16.0064 15.285 15.9591C15.4444 15.9117 15.5893 15.825 15.7063 15.707L17.0003 14.414L19.5863 17L17.5803 19.005Z" fill="#030C01"/>
  </symbol>
  <symbol id="left-arrow-alt" viewBox="0 0 24 24">
    <path d="M12.7069 17.293L8.41394 13H17.9999V11H8.41394L12.7069 6.70697L11.2929 5.29297L4.58594 12L11.2929 18.707L12.7069 17.293Z" fill="#030C01"/>
  </symbol>
  <symbol id="Facebook" viewBox="0 0 24 24">
    <path d="M22 12.3038C22 6.74719 17.5229 2.24268 12 2.24268C6.47715 2.24268 2 6.74719 2 12.3038C2 17.3255 5.65684 21.4879 10.4375 22.2427V15.2121H7.89844V12.3038H10.4375V10.0872C10.4375 7.56564 11.9305 6.1728 14.2146 6.1728C15.3088 6.1728 16.4531 6.36931 16.4531 6.36931V8.84529H15.1922C13.95 8.84529 13.5625 9.6209 13.5625 10.4166V12.3038H16.3359L15.8926 15.2121H13.5625V22.2427C18.3432 21.4879 22 17.3257 22 12.3038Z" fill="#030C01"/>
  </symbol>
  <symbol id="top-arrow-alt" viewBox="0 0 24 24">
    <path d="M18 13.414L19.414 12L12.707 5.29303L6 12L7.414 13.414L11.707 9.12103V18.707H13.707V9.12103L18 13.414Z" fill="#030C01"/>
  </symbol>
  <symbol id="right-arrow-alt" viewBox="0 0 24 24">
    <path d="M11.293 17.293L12.707 18.707L19.414 12L12.707 5.29297L11.293 6.70697L15.586 11H6V13H15.586L11.293 17.293Z" fill="#030C01"/>
  </symbol>
  <symbol id="Instagram" viewBox="0 0 24 24">
    <path d="M11.9988 4.62091C14.4032 4.62091 14.6878 4.63159 15.6332 4.67378C16.5123 4.71258 16.9864 4.85994 17.303 4.98311C17.7215 5.14509 18.0235 5.34194 18.3362 5.65465C18.6528 5.97129 18.8458 6.26994 19.0111 6.68838C19.1343 7.00503 19.2816 7.48253 19.3204 8.35822C19.3626 9.3076 19.3733 9.59218 19.3733 11.9932C19.3733 14.3942 19.3626 14.6821 19.3204 15.6281C19.2816 16.5072 19.1343 16.9813 19.0111 17.298C18.8491 17.7164 18.6528 18.0184 18.3396 18.3311C18.0229 18.6478 17.7243 18.8407 17.3064 19.0061C16.9898 19.1292 16.5117 19.2766 15.6366 19.3154C14.6872 19.3576 14.4026 19.3683 12.0016 19.3683C9.60062 19.3683 9.31266 19.3576 8.36666 19.3154C7.48759 19.2766 7.01346 19.1292 6.69682 19.0061C6.27838 18.8441 5.97635 18.6478 5.66308 18.3345C5.34644 18.0179 5.15353 17.7192 4.98817 17.3013C4.865 16.9847 4.71765 16.5066 4.67884 15.6315C4.63666 14.6821 4.62597 14.3975 4.62597 11.9965C4.62597 9.59556 4.63666 9.3076 4.67884 8.3616C4.71765 7.48253 4.865 7.0084 4.98817 6.69176C5.15015 6.27331 5.347 5.97129 5.65971 5.65802C5.97635 5.34137 6.275 5.14846 6.69344 4.98311C7.01009 4.85994 7.48759 4.71258 8.36328 4.67378C9.30872 4.63159 9.59387 4.62091 11.9982 4.62091H11.9988ZM11.9988 3.00056C9.55563 3.00056 9.25023 3.01125 8.29017 3.05343C7.33405 3.09561 6.67657 3.25028 6.1074 3.47187C5.51348 3.70359 5.01067 4.00955 4.5118 4.51236C4.00899 5.01179 3.70303 5.51404 3.47131 6.10459C3.24972 6.6777 3.09505 7.33123 3.05287 8.28736C3.01069 9.25079 3 9.55619 3 11.9994C3 14.4425 3.01069 14.7479 3.05287 15.708C3.09505 16.6641 3.24972 17.3216 3.47131 17.8908C3.70359 18.4847 4.00899 18.9875 4.5118 19.4864C5.01067 19.9852 5.51348 20.2951 6.10402 20.5235C6.67713 20.7451 7.33067 20.8997 8.28679 20.9419C9.24629 20.9841 9.55225 20.9948 11.9954 20.9948C14.4386 20.9948 14.7446 20.9841 15.7041 20.9419C16.6602 20.8997 17.3177 20.7451 17.8868 20.5235C18.4774 20.2951 18.9802 19.9858 19.4791 19.4864C19.9779 18.9869 20.2878 18.4847 20.5162 17.8941C20.7378 17.321 20.8924 16.6675 20.9346 15.7114C20.9768 14.7519 20.9875 14.4459 20.9875 12.0027C20.9875 9.55956 20.9768 9.25417 20.9346 8.29411C20.8924 7.33798 20.7378 6.68051 20.5162 6.11133C20.2946 5.51348 19.9886 5.01123 19.4864 4.5118C18.9875 4.01293 18.4847 3.70303 17.8941 3.47469C17.321 3.25309 16.6675 3.09842 15.7114 3.05624C14.7485 3.01069 14.4425 3 11.9994 3L11.9988 3.00056Z" fill="black"/>
<path d="M11.9985 7.37671C9.44683 7.37671 7.37598 9.447 7.37598 11.9993C7.37598 14.5516 9.44626 16.6219 11.9985 16.6219C14.5508 16.6219 16.6211 14.5516 16.6211 11.9993C16.6211 9.44756 14.5508 7.37671 11.9985 7.37671ZM11.9985 14.9976C10.3428 14.9976 9.00026 13.6551 9.00026 11.9993C9.00026 10.3435 10.3428 9.00099 11.9985 9.00099C13.6543 9.00099 14.9968 10.3435 14.9968 11.9993C14.9968 13.6551 13.6543 14.9976 11.9985 14.9976Z" fill="black"/>
<path d="M17.8822 7.19404C17.8822 7.79021 17.3991 8.27333 16.8029 8.27333C16.2068 8.27333 15.7236 7.79021 15.7236 7.19404C15.7236 6.59787 16.2068 6.11475 16.8029 6.11475C17.3991 6.11475 17.8822 6.59787 17.8822 7.19404Z" fill="black"/>
  </symbol>
  <symbol id="Logo-w" viewBox="0 0 84 36">
    <g clip-path="url(#clip0_4179_8848)">
<g clip-path="url(#clip1_4179_8848)">
<path d="M36.0942 0.74658C35.6299 1.05674 35.2914 1.44828 34.986 1.91062C33.861 1.92973 32.8026 2.25172 32.0036 3.08154C31.242 3.8724 30.9823 4.83232 31.0179 5.90738L31.0212 5.98868C31.1629 6.95357 31.5519 7.7441 32.3385 8.33936C32.5247 8.48022 32.9388 8.68516 33.3605 8.89384C33.9044 9.16292 34.4608 9.43823 34.5572 9.59042C34.8891 10.0647 35.7757 10.3417 36.3252 10.4426C37.1853 10.6004 37.9531 10.5297 38.7809 10.2843C39.9612 12.1142 40.4592 14.0359 40.7329 16.1818L40.6353 16.3634C40.3891 16.1469 40.1862 15.8137 39.9848 15.483C39.8419 15.2483 39.6997 15.0148 39.5435 14.8255C37.9737 12.9206 35.5882 11.5732 33.0619 11.7154C32.5626 11.7434 31.4119 11.8597 31.0219 12.1934C30.963 12.6559 31.4691 13.3851 31.7568 13.7534C33.4407 15.9091 36.1789 16.4393 38.7268 16.9326C38.9608 16.9779 39.1932 17.0229 39.423 17.0688C39.4399 17.0722 39.4578 17.0756 39.4766 17.0791C39.6718 17.1162 39.9501 17.1691 39.9984 17.3579L39.972 17.427C37.3706 16.9892 34.6543 17.3049 32.4615 18.8769C30.5871 20.2206 29.511 22.3416 29.1477 24.5856C28.7164 27.2491 29.1665 30.2298 30.7698 32.4473C32.0661 34.2402 33.9806 35.3777 36.1601 35.7223C38.5688 36.103 41.1861 35.6554 43.1769 34.1978C45.066 32.8146 46.1355 30.7002 46.482 28.4185C46.8988 25.6724 46.5159 22.753 44.8344 20.4799C44.1083 19.4982 43.2514 18.8303 42.2076 18.215C42.1849 18.2017 42.1621 18.189 42.1395 18.1765C42.0113 18.1053 41.8913 18.0387 41.8561 17.8779C44.1967 17.0769 46.5118 16.1124 48.3752 14.4358C49.2792 13.6226 50.8548 11.7273 50.9194 10.5281C50.8134 10.3583 50.7804 10.3275 50.5852 10.2701C50.1808 10.1508 49.6713 10.1347 49.2462 10.1256C46.9857 10.0767 45.0776 11.11 43.6732 12.8401C43.5899 12.9426 43.4657 13.1356 43.3274 13.3508C43.0578 13.7701 42.7342 14.2734 42.5533 14.3545C42.5372 14.3617 42.5208 14.368 42.5044 14.3743C42.4956 14.3777 42.4867 14.3811 42.478 14.3846C42.6291 13.7618 42.8292 13.1441 43.0291 12.5268C43.1749 12.0765 43.3207 11.6263 43.4474 11.1745L43.5136 11.1223C45.109 9.85525 46.2512 7.94798 46.4729 5.90812C46.6383 4.38967 46.2793 3.06144 45.3232 1.86621C45.1652 1.94834 45.0089 2.03312 44.8584 2.12749C43.5045 2.97848 42.775 4.62299 42.4491 6.13565C42.1216 7.65477 42.0463 9.84847 42.9189 11.1976C42.3697 12.9239 41.837 14.6553 41.3201 16.3913C41.1084 14.1565 40.4459 11.9137 39.2759 9.99561C39.4658 9.82291 39.6419 9.63566 39.8024 9.43558C40.4723 8.61023 41.2713 7.02544 41.1605 5.94526C41.0384 5.78836 40.9027 5.05517 40.7872 4.43106C40.7221 4.07905 40.6634 3.76174 40.6171 3.60211C40.3905 2.81745 40.0845 2.08374 39.7354 1.34671C39.3962 0.825814 38.8924 0.408296 38.2731 0.270834C37.5049 0.10037 36.738 0.316657 36.0942 0.74658ZM36.9017 17.9927C37.9868 17.8856 38.9883 17.9933 39.9323 18.5873C41.4558 19.5464 42.1936 21.3413 42.5765 23.0272C43.2332 25.9231 43.2299 30.6291 41.5658 33.2145C40.8884 34.2668 40.015 34.7795 38.8178 35.0392C37.701 35.1593 36.6369 35.0483 35.6795 34.4165C34.1068 33.3787 33.4163 31.4068 33.0524 29.6403C32.4428 26.6817 32.3597 22.4266 34.1134 19.8055C34.8152 18.7564 35.6888 18.2422 36.9017 17.9927Z" fill="#F2F2F2"/>
<path d="M34.986 1.91062C35.2913 1.44828 35.6298 1.05674 36.0942 0.746578C36.7379 0.316656 37.5049 0.100371 38.2731 0.270834C38.8924 0.408297 39.3962 0.825812 39.7354 1.34671C38.6743 1.6539 38.3124 2.06174 37.6972 2.97435C37.5354 3.41883 37.3968 3.8839 37.3576 4.35774C38.1041 5.01569 38.5838 5.7561 38.65 6.77516C38.658 6.89691 38.667 6.91957 38.6005 7.01824L38.3292 6.93801C38.0875 7.1146 38.0269 7.41549 37.9818 7.69753C37.9014 8.20123 37.8896 8.74438 37.8995 9.25412C37.2767 9.07183 36.7283 9.00855 36.08 9.03874C35.5466 9.17075 35.0432 9.32467 34.5571 9.59041C34.386 9.3202 32.7646 8.66184 32.3384 8.33936C31.5518 7.7441 31.1628 6.95356 31.0212 5.98868L31.0178 5.90738C30.9823 4.83232 31.242 3.8724 32.0035 3.08154C32.8026 2.25172 33.8609 1.92973 34.986 1.91062Z" fill="#EEEE60"/>
<path d="M34.986 1.91062C35.2913 1.44828 35.6298 1.05674 36.0942 0.746578C36.7379 0.316656 37.5049 0.100371 38.2731 0.270834C38.8924 0.408297 39.3962 0.825812 39.7354 1.34671C38.6743 1.6539 38.3124 2.06174 37.6972 2.97435C37.5354 3.41883 37.3968 3.8839 37.3576 4.35774L36.6123 4.05709C36.315 4.06503 35.7293 4.00532 35.4746 4.13385L35.1462 4.29356C35.0195 4.40869 34.8716 4.58221 34.7261 4.66599L34.4509 5.14116L34.2603 5.1529C33.3745 5.13702 32.5382 5.23363 31.7275 5.61616C31.4983 5.72434 31.2578 5.91689 31.0212 5.98868L31.0178 5.90738C30.9823 4.83232 31.242 3.8724 32.0035 3.08154C32.8026 2.25172 33.8609 1.92973 34.986 1.91062Z" fill="#AC321C"/>
<path d="M36.6123 4.05709C36.7479 3.69367 36.8623 3.24679 37.1424 2.96955C37.3952 2.86732 37.4461 2.90082 37.6971 2.97435C37.5353 3.41883 37.3967 3.8839 37.3575 4.35774L36.6123 4.05709Z" fill="#F2F2F2"/>
<path d="M35.146 4.29355C34.8782 4.10944 34.5703 3.92152 34.3536 3.67612C34.2131 3.51707 34.1395 3.34397 34.1493 3.1319L34.2902 3.06242C34.8831 3.19244 35.1366 3.67745 35.4744 4.13384L35.146 4.29355Z" fill="#F2F2F2"/>
<path d="M34.26 5.15291C34.1485 5.1391 34.0227 5.12917 33.9145 5.09724C33.7336 5.0439 33.7045 4.96896 33.6357 4.81355C33.7129 4.70537 33.7314 4.67551 33.8538 4.62167C34.1499 4.49157 34.4357 4.55748 34.7258 4.666L34.4506 5.14116L34.26 5.15291Z" fill="#F2F2F2"/>
<path d="M35.7377 2.39273C35.8378 2.43599 35.936 2.4876 35.9992 2.5804C36.253 2.953 36.2105 3.69681 36.1644 4.12855L35.8117 4.02384C35.7634 3.9709 35.726 3.92881 35.6962 3.86272C35.4884 3.40187 35.5742 2.85135 35.7377 2.39273Z" fill="#F2F2F2"/>
<path d="M34.2606 5.1529L34.4512 5.14116C34.2189 6.01961 34.0937 6.90807 34.58 7.73343C34.927 8.32256 35.49 8.71915 36.0803 9.03874C35.5468 9.17075 35.0435 9.32467 34.5574 9.59041C34.3863 9.3202 32.7649 8.66184 32.3387 8.33935C31.5521 7.7441 31.1631 6.95356 31.0215 5.98868C31.258 5.91689 31.4986 5.72434 31.7277 5.61616C32.5385 5.23363 33.3748 5.13702 34.2606 5.1529Z" fill="#78270E"/>
<path d="M42.4783 14.3846C42.5032 14.3746 42.5288 14.3656 42.5536 14.3545C42.8274 14.2318 43.4278 13.1423 43.6735 12.8401C45.0779 11.11 46.986 10.0767 49.2464 10.1256C49.6716 10.1347 50.181 10.1508 50.5855 10.2701C50.7807 10.3275 50.8138 10.3583 50.9196 10.5281C50.8551 11.7273 49.2795 13.6226 48.3755 14.4358C46.5121 16.1124 44.197 17.0769 41.8564 17.8779C43.0722 16.3382 44.4948 14.8274 46.0166 13.5896C46.546 13.1591 48.7816 11.7908 48.9437 11.5093C48.8718 11.4625 48.8618 11.4326 48.7725 11.4456C46.7511 11.7396 42.8572 15.8925 41.6479 17.4627C41.801 16.3936 42.064 15.3839 42.4783 14.3846Z" fill="#1A5E07"/>
<path d="M39.9719 17.427L39.9984 17.3579C39.9455 17.151 39.6163 17.1073 39.4229 17.0688C36.6907 16.5229 33.5954 16.1071 31.7568 13.7534C31.469 13.3851 30.9629 12.6559 31.0218 12.1934C31.4119 11.8597 32.5625 11.7434 33.0618 11.7154C35.5882 11.5732 37.9737 12.9206 39.5435 14.8255C39.9198 15.2815 40.2143 15.9933 40.6353 16.3634L40.7329 16.1817C40.7759 16.4372 40.7932 16.6383 40.756 16.8978C40.4525 16.8005 39.9728 16.1772 39.6874 15.9513C38.0772 14.6749 35.2529 12.9389 33.1218 13.0001L33.0667 13.0753C33.5975 13.4887 34.4945 13.6529 35.1277 13.8725C37.0377 14.5351 39.1673 15.7914 40.3847 17.4438L40.3193 17.5173C40.2134 17.4932 40.0646 17.4794 39.9719 17.427Z" fill="#1A5E07"/>
<path d="M45.3231 1.8662C46.2792 3.06142 46.6381 4.38965 46.4727 5.90811C46.2511 7.94796 45.1088 9.85523 43.5134 11.1223L43.4472 11.1745C43.8161 9.35443 44.0899 7.43583 44.6308 5.66329C44.7491 5.2777 45.0121 4.58145 44.8169 4.21439L44.6804 4.26898C43.8475 5.5872 43.4257 9.46931 42.9187 11.1976C42.0461 9.84845 42.1214 7.65476 42.4489 6.13564C42.7748 4.62297 43.5043 2.97847 44.8582 2.12747C45.0088 2.0331 45.1651 1.94833 45.3231 1.8662Z" fill="#1A5E07"/>
<path d="M37.697 2.97434C38.3123 2.06173 38.6741 1.65389 39.7352 1.34671C40.0843 2.08373 40.3903 2.81744 40.6169 3.60211C40.7451 4.04476 40.9692 5.69986 41.1603 5.94525C40.4821 6.0823 40.0115 6.44713 39.6343 7.0213C39.4244 7.34114 39.2601 7.70563 39.1082 8.05665C38.9402 7.74583 38.6684 7.36239 38.6004 7.01824C38.6669 6.91957 38.6579 6.8969 38.6499 6.77516C38.5837 5.7561 38.104 5.01569 37.3574 4.35773C37.3966 3.88389 37.5352 3.41882 37.697 2.97434Z" fill="#78270E"/>
<path d="M70.0526 17.2833C69.405 17.2641 68.7599 17.2997 68.1148 17.3536C66.5474 17.6697 64.6649 18.2041 63.727 19.614C63.2589 20.3177 63.0504 21.1868 63.2167 22.0219C63.3391 22.6354 63.6675 23.1961 64.1985 23.5408C64.6897 23.8595 65.3953 24.005 65.9701 23.8762C66.4473 23.7692 66.8534 23.4596 67.1107 23.0473C67.4026 22.579 67.4878 21.985 67.3621 21.4498C67.2844 21.1196 67.0587 20.8597 66.8393 20.607C66.475 20.1874 66.1281 19.7879 66.506 19.1198C66.8137 18.5767 67.5432 18.253 68.1222 18.1194C69.0171 17.9128 70.0865 17.976 70.8772 18.4777C71.6506 18.9686 72.0823 19.775 72.2733 20.6525C72.5091 21.741 72.5645 23.329 71.9301 24.2795C71.3546 25.142 69.8905 25.4807 68.2456 25.8612C65.8883 26.4065 63.1597 27.0377 62.1439 29.4198C61.7532 30.3354 61.8702 31.2754 61.9583 31.9829C62.0072 32.3763 62.0472 32.6978 61.986 32.9034C61.9967 32.9175 62.0075 32.9315 62.0182 32.9457C62.1454 33.117 62.2483 33.3018 62.3513 33.4868C62.4265 33.6217 62.5017 33.7568 62.5865 33.8869C63.2928 34.9727 64.2456 35.4446 65.5052 35.6386C67.4059 35.9315 69.5133 35.5143 71.0724 34.3593C71.4446 34.0836 72.1328 33.4638 72.2063 32.9855C72.2127 32.9939 72.219 33.0022 72.2251 33.0106L72.2328 33.0217C72.4607 33.3633 72.542 33.705 72.6184 34.0264C72.7791 34.7023 72.9184 35.2882 74.3551 35.5937C75.4328 35.8229 77.1019 35.7068 78.0581 35.0711C78.2541 34.9412 78.4559 34.7389 78.4939 34.4984C78.4989 34.4668 78.5002 34.4433 78.5001 34.4182C78.5001 34.3983 78.4993 34.3774 78.4989 34.3505C78.4827 34.3353 78.4691 34.3219 78.4571 34.3101C78.386 34.2405 78.3728 34.2274 78.2433 34.2308C78.0537 34.2357 77.8595 34.2704 77.6653 34.3051C77.1717 34.3933 76.6791 34.4813 76.2666 34.0784C75.6546 33.4808 75.6664 32.0974 75.6738 31.21C75.6744 31.1414 75.6749 31.0758 75.6752 31.0137C75.6901 29.0948 75.6942 27.1758 75.6884 25.2568C75.681 20.9183 75.542 17.4465 70.0526 17.2833ZM72.0152 25.2935L72.2518 25.2862L72.323 25.3853C72.3911 25.9372 72.3716 26.4921 72.3521 27.047C72.3431 27.301 72.3342 27.555 72.3337 27.8088C72.3329 28.1434 72.3443 28.4842 72.3557 28.8271C72.383 29.6473 72.4108 30.4805 72.275 31.2717C72.1989 31.7187 72.0351 32.1466 71.7944 32.5311C71.2651 33.3748 70.3908 33.8995 69.429 34.1048C68.29 34.3479 67.396 34.0962 66.4382 33.482C66.3799 33.3785 66.3236 33.2797 66.2694 33.1846C65.7093 32.202 65.3748 31.6154 65.4879 30.3038C65.7009 27.8267 68.1625 26.9064 70.1833 26.1509L70.3387 26.0927L70.4471 26.052C70.523 26.0234 70.607 25.9934 70.6957 25.9617L70.697 25.9612C71.1212 25.8097 71.6554 25.6188 71.9458 25.3586C71.9555 25.3501 71.9648 25.3414 71.9741 25.3327C71.9878 25.3197 72.0014 25.3065 72.0152 25.2935Z" fill="#F2F2F2"/>
<path d="M70.3688 26.0812C70.3439 26.0905 70.319 26.0999 70.2939 26.1093L70.3382 26.0927L70.3688 26.0812Z" fill="#EEEE60"/>
<path d="M13.4355 7.50125C13.8363 7.45733 14.2714 7.47214 14.6734 7.51175C16.2225 7.65195 17.6511 8.40642 18.6404 9.60669C19.3009 10.4222 19.6856 11.411 19.5651 12.4683C19.4947 13.087 19.2635 13.6851 18.7614 14.0792C18.2249 14.5004 17.4562 14.7093 16.7799 14.6258C16.2104 14.5555 15.7133 14.2543 15.366 13.7995C15.0568 13.3946 14.9222 12.7918 14.9978 12.2903C15.1638 11.1888 16.3175 11.0874 17.0498 10.5325C17.2465 10.3834 17.3291 10.2322 17.3646 9.99063C17.3198 9.70843 17.2049 9.52432 17.015 9.31978C16.3105 8.56076 15.238 8.21065 14.2225 8.18525C13.3478 8.16325 12.4818 8.39649 11.8469 9.02392C10.3306 10.5219 10.7465 15.2493 10.751 17.3C11.7662 17.3096 17.5785 17.13 18.1023 17.5156C18.1537 17.6863 18.1312 17.7852 18.0873 17.9558C17.6895 18.2279 11.763 18.0838 10.7452 18.0985L10.7536 23.9641C11.2766 23.9652 11.8021 23.9719 12.3246 23.95C16.0043 23.7963 14.9027 21.1401 15.7871 20.2604C15.8797 20.1682 15.9279 20.1935 16.0558 20.1935C16.3119 20.5331 16.1963 26.8836 16.1961 27.8368C16.199 28.0605 16.1829 28.2794 16.1645 28.5021L16.0065 28.631C15.8018 28.6335 15.7515 28.6653 15.5915 28.5286C15.4664 27.4982 15.171 26.1913 14.402 25.4523C13.4485 24.5359 11.9694 24.7281 10.7535 24.7436C10.7464 26.494 10.3594 32.8718 11.4812 34.0878C12.0951 34.7534 13.2202 34.6655 13.6526 35.2072L13.6334 35.3257C13.393 35.4588 13.0979 35.4663 12.8286 35.4774C12.0553 35.5094 5.10907 35.4925 4.72745 35.3765C4.65103 35.3534 4.68047 35.349 4.6014 35.3591C4.58643 35.361 4.57196 35.3655 4.55732 35.3688L4.51861 35.2774C4.62315 34.8859 6.21348 34.5763 6.6683 34.1016C7.66519 33.0609 7.30425 26.5511 7.29432 24.7568C6.59394 24.7456 5.19261 24.9903 4.66666 24.5583C4.5689 24.3674 4.54177 24.3319 4.56385 24.1218C4.95242 23.7743 6.73472 23.9404 7.28755 23.9387C7.29648 21.9826 7.29515 20.0265 7.28357 18.0703C6.43274 18.0862 5.29227 18.2361 4.52043 17.8288L4.5 17.5851C5.03058 17.1422 6.59849 17.3049 7.2887 17.3104C7.25785 14.77 7.29457 11.7446 8.97952 9.66393C10.0948 8.28666 11.7271 7.67949 13.4355 7.50125Z" fill="#F2F2F2"/>
<path d="M25.7539 6.21439L25.8494 6.23316C25.9792 6.38518 25.9795 6.46673 25.9895 6.66044C26.0982 8.7653 25.9813 10.9381 25.9805 13.0505L25.9769 26.4147C25.9767 28.019 25.7464 32.3347 26.2565 33.5939C26.8226 34.9918 28.1452 34.5504 28.5716 35.2072L28.5049 35.3821C28.1188 35.5324 21.4814 35.4513 20.4106 35.4842C20.3258 35.4841 20.3425 35.4933 20.2794 35.4683C20.1169 35.4038 20.1212 35.3397 20.0532 35.1898C20.2138 34.6384 21.3938 34.8609 21.875 34.3255C22.2921 33.8615 22.4546 33.2445 22.5309 32.6411C22.689 31.3904 22.6405 30.1052 22.64 28.8466L22.6352 23.5465L22.6315 15.9571C22.6335 14.2722 22.676 12.5773 22.595 10.8943C22.5059 9.04337 22.5687 8.69814 20.739 8.13192C20.5542 8.07468 20.2915 8.01298 20.1545 7.86848C20.0682 7.7775 20.0939 7.74657 20.0918 7.62921L20.1688 7.63897C20.3135 7.47099 20.9779 7.43484 21.2102 7.40532C22.7993 7.20301 24.3141 6.94678 25.7539 6.21439Z" fill="#F2F2F2"/>
<path d="M52.7399 17.1825L52.9889 17.2139C53.0087 17.2449 53.041 17.2898 53.0551 17.3266C53.2403 17.8098 53.1386 21.0456 52.9517 21.486C53.2188 21.2536 53.3338 20.9255 53.4926 20.6169C54.0542 19.526 54.7481 18.5688 55.8688 17.9962C57.0334 17.4011 58.5445 17.0911 59.8074 17.5162C60.5088 17.7521 61.0754 18.2362 61.3971 18.905C61.7321 19.6027 61.7982 20.4239 61.5286 21.1545C61.3086 21.7489 60.8669 22.2791 60.2847 22.545C59.733 22.7968 59.121 22.7751 58.5627 22.5522C57.9986 22.3268 57.5205 21.9239 57.2906 21.3521C56.8473 20.2525 57.4436 19.8549 57.7869 18.9508C57.8539 18.7758 57.8414 18.7218 57.7645 18.5578C57.5288 18.4443 57.2815 18.4928 57.0375 18.5514C53.931 19.2963 53.2023 22.9678 53.1394 25.7076C53.1237 26.3825 53.1485 28.7481 53.1485 28.7481C53.1485 28.7481 53.1229 31.0219 53.1485 31.6751C53.2106 33.2621 53.3197 34.3382 55.0169 34.8474C55.265 34.9218 55.581 34.9681 55.7704 35.1543C55.8209 35.2036 55.796 35.2934 55.7952 35.361C55.7762 35.3755 55.7572 35.3909 55.7381 35.4045C55.6331 35.4768 47.7286 35.5042 47.2902 35.3944L47.2373 35.2123C47.4201 34.5224 48.7484 34.8678 49.2604 34.2161C49.5151 33.8917 49.6135 33.4689 49.6714 33.0691C49.9833 30.9234 49.8327 28.6048 49.8277 26.4325C49.8236 24.633 49.9386 22.716 49.6938 20.938C49.3538 18.4639 48.4531 19.6255 47.43 18.8462C47.3407 18.6509 47.3548 18.6301 47.4036 18.4178C49.1462 18.0879 51.0808 18.0731 52.6829 17.2137L52.7399 17.1825Z" fill="#F2F2F2"/>
</g>
</g>
<defs>
<clipPath id="clip0_4179_8848">
<rect width="84" height="36" fill="white"/>
</clipPath>
<clipPath id="clip1_4179_8848">
<rect width="74" height="35.6389" fill="white" transform="translate(4.5 0.212479)"/>
</clipPath>
</defs>
  </symbol>
  <symbol id="flower" viewBox="0 0 96 85">
    <path d="M19.1547 8.17091C20.6273 5.9463 22.2602 4.06228 24.4993 2.56996C27.6043 0.501308 31.303 -0.539436 35.0082 0.280782C37.9951 0.942238 40.4249 2.95119 42.0608 5.45761C43.7442 9.00385 45.2201 12.5343 46.3129 16.3098C46.5361 17.0779 46.8192 18.6047 47.1333 20.2984C47.6903 23.3009 48.3449 26.8295 48.9337 27.5843C49.4683 32.7817 45.6148 40.4072 42.3837 44.3786C41.6099 45.3412 40.7603 46.2422 39.8444 47.0732C45.4874 56.3025 48.6826 67.0938 49.7036 77.8473C52.1967 69.4939 54.7659 61.1633 57.4143 52.8569C53.2059 46.3652 53.569 35.8099 55.1487 28.5004C56.7204 21.2219 60.2386 13.3091 66.7685 9.2144C67.4947 8.76032 68.2485 8.35244 69.0105 7.9572C73.6217 13.7083 75.3531 20.0993 74.5551 27.4055C73.4861 37.2206 67.9772 46.3979 60.2826 52.4943L59.9634 52.7458C59.3525 54.9196 58.6492 57.0856 57.9459 59.2527C56.9816 62.2227 56.0168 65.1948 55.2882 68.1914C55.3302 68.1745 55.3728 68.1582 55.4154 68.1419C55.4944 68.1118 55.5734 68.0814 55.6513 68.0465C56.5237 67.6565 58.0845 65.2347 59.3847 63.2172C60.0518 62.1818 60.6506 61.2529 61.0523 60.7597C67.8257 52.4354 77.0285 47.4636 87.9304 47.6988C89.9807 47.7425 92.4379 47.8198 94.3886 48.394C95.33 48.6702 95.4893 48.8183 96.0001 49.6353C95.6888 55.4055 88.0897 64.5249 83.73 68.4381C74.7428 76.5049 63.5772 81.1461 52.2886 85C51.829 84.8979 51.5734 84.8411 51.0556 84.7261L47.1048 83.8485L45.0723 83.397L43.2017 82.8307L43.3291 82.498C43.0962 81.5897 41.7536 81.3353 40.8123 81.1567L40.8002 81.1544C40.7141 81.1382 40.6317 81.1225 40.5538 81.1071C39.4513 80.8874 38.3364 80.672 37.2142 80.4551L37.1962 80.4517C24.908 78.078 11.7019 75.5269 3.58043 65.1545C2.19265 63.3823 -0.248179 59.8739 0.0359185 57.648C1.91685 56.0426 7.46652 55.483 9.87476 55.3481C22.0589 54.664 33.5641 61.1474 41.1352 70.313C41.8887 71.2241 42.5743 72.3473 43.2637 73.4769C44.2346 75.0678 45.2135 76.6713 46.4009 77.7128L46.8716 76.8388C45.5513 66.514 43.1497 57.2672 37.4572 48.4625C33.4646 49.6429 29.7616 49.9831 25.6132 49.2238C22.9633 48.7383 18.687 47.4055 17.0864 45.1236C16.6215 44.3913 13.938 43.0666 11.3151 41.7719C9.28118 40.7677 7.28371 39.7816 6.38578 39.1039C2.59195 36.2397 0.715777 32.4359 0.0328676 27.7932L0.016759 27.4019C-0.154822 22.2292 1.09762 17.6103 4.77052 13.805C8.62439 9.81214 13.7289 8.26286 19.1547 8.17091Z" fill="#353C3A"/>
<path d="M19.1533 8.17091C20.6261 5.94627 22.2588 4.06229 24.4982 2.56991C27.6029 0.501267 31.3019 -0.539427 35.0068 0.280787C37.9938 0.942211 40.4235 2.95115 42.0594 5.45756C36.9419 6.93562 35.1967 8.89801 32.2293 13.2892C31.449 15.4279 30.7805 17.6657 30.5914 19.9456C34.1919 23.1115 36.5055 26.6741 36.825 31.5774C36.8633 32.1633 36.9068 32.2723 36.5861 32.7471L35.2777 32.361C34.1117 33.2107 33.8197 34.6585 33.6023 36.0156C33.2146 38.4392 33.1575 41.0527 33.2054 43.5054C30.2013 42.6282 27.5566 42.3238 24.43 42.4691C21.8571 43.1042 19.4294 43.8448 17.085 45.1235C16.2597 43.8233 8.44006 40.6555 6.38452 39.1038C2.59058 36.2397 0.714539 32.4359 0.031621 27.7932L0.0152842 27.402C-0.156243 22.2292 1.09629 17.6103 4.76937 13.805C8.62315 9.81214 13.7275 8.26284 19.1533 8.17091Z" fill="#EAE9E8"/>
<path d="M19.1533 8.17091C20.6261 5.94627 22.2588 4.06229 24.4982 2.56991C27.6029 0.501267 31.3019 -0.539427 35.0068 0.280787C37.9938 0.942211 40.4235 2.95115 42.0594 5.45756C36.9419 6.93562 35.1967 8.89801 32.2293 13.2892C31.449 15.4279 30.7805 17.6657 30.5914 19.9456L26.9973 18.499C25.5633 18.5372 22.7382 18.2499 21.51 18.8683L19.926 19.6368C19.3153 20.1908 18.602 21.0257 17.9 21.4288L16.5729 23.7152L15.6538 23.7717C11.3816 23.6953 7.34786 24.1601 3.43784 26.0007C2.33248 26.5213 1.17248 27.4477 0.031621 27.7932L0.0152842 27.402C-0.156243 22.2292 1.09629 17.6103 4.76937 13.805C8.62315 9.81214 13.7275 8.26284 19.1533 8.17091Z" fill="#DB8778"/>
<path d="M26.9985 18.499C27.6527 16.7503 28.204 14.6001 29.5551 13.2661C30.7745 12.7742 31.0198 12.9354 32.2305 13.2892C31.4503 15.4279 30.7817 17.6656 30.5926 19.9456L26.9985 18.499Z" fill="#353C3A"/>
<path d="M19.9262 19.6368C18.635 18.7509 17.1499 17.8467 16.1047 16.6659C15.427 15.9006 15.072 15.0677 15.1194 14.0473L15.7988 13.713C18.6585 14.3386 19.8811 16.6723 21.5102 18.8683L19.9262 19.6368Z" fill="#353C3A"/>
<path d="M15.653 23.7716C15.1149 23.7052 14.5086 23.6574 13.9864 23.5038C13.114 23.2471 12.9736 22.8866 12.6421 22.1388C13.0143 21.6182 13.1032 21.4746 13.694 21.2155C15.1221 20.5895 16.5003 20.9066 17.8992 21.4288L16.5721 23.7151L15.653 23.7716Z" fill="#353C3A"/>
<path d="M22.7792 10.4906C23.2619 10.6988 23.7354 10.9471 24.0405 11.3936C25.2643 13.1865 25.0593 16.7654 24.8371 18.8428L23.1362 18.339C22.9032 18.0843 22.7225 17.8817 22.5789 17.5637C21.5765 15.3462 21.9906 12.6974 22.7792 10.4906Z" fill="#353C3A"/>
<path d="M15.6554 23.7717L16.5744 23.7152C15.4543 27.942 14.8504 32.217 17.1955 36.1883C18.8693 39.023 21.5846 40.9313 24.4316 42.4691C21.8587 43.1042 19.431 43.8448 17.0866 45.1235C16.2613 43.8233 8.44164 40.6555 6.38611 39.1038C2.59216 36.2397 0.716121 32.4359 0.0332031 27.7932C1.17406 27.4477 2.33406 26.5212 3.43942 26.0007C7.34944 24.1601 11.3831 23.6953 15.6554 23.7717Z" fill="#EBB19F"/>
<path d="M55.2881 68.1913C55.4078 68.1432 55.5315 68.1002 55.6511 68.0465C56.9715 67.4563 59.8675 62.2138 61.0523 60.7597C67.8256 52.4354 77.0283 47.4635 87.9302 47.6987C89.9806 47.7425 92.4378 47.8197 94.3884 48.394C95.3298 48.6702 95.4894 48.8182 96 49.6352C95.6888 55.4054 88.0898 64.5248 83.7298 68.4381C74.7425 76.5049 63.5773 81.146 52.2884 84.9999C58.1522 77.5918 65.0133 70.3221 72.3531 64.3665C74.9061 62.2946 85.6884 55.711 86.4702 54.3567C86.1232 54.1311 86.0753 53.9874 85.6445 54.0499C75.8953 55.4647 57.1151 75.4471 51.2832 83.0021C52.0212 77.858 53.2896 73 55.2881 68.1913Z" fill="#97A898"/>
<path d="M43.2013 82.8306L43.329 82.4979C43.0737 81.5026 41.486 81.2925 40.5534 81.107C27.3761 78.4805 12.4477 76.4795 3.58009 65.1545C2.19232 63.3823 -0.248553 59.8738 0.0354639 57.648C1.91668 56.0426 7.46618 55.483 9.87434 55.3481C22.0588 54.664 33.5639 61.1473 41.135 70.3129C42.95 72.5073 44.3701 75.9319 46.4005 77.7128L46.8712 76.8388C47.0786 78.0682 47.1624 79.0356 46.9829 80.284C45.5189 79.816 43.2053 76.8169 41.8291 75.7301C34.0633 69.5882 20.4416 61.2353 10.1636 61.5298L9.89789 61.8915C12.458 63.8806 16.7841 64.6709 19.8377 65.7275C29.0495 68.9157 39.3208 74.9608 45.1918 82.9114L44.8767 83.2648C44.3661 83.149 43.6481 83.0826 43.2013 82.8306Z" fill="#97A898"/>
<path d="M69.0084 7.95712C73.6197 13.7082 75.351 20.0991 74.5532 27.4055C73.4841 37.2206 67.9753 46.3977 60.2805 52.4942L59.9614 52.7457C61.7405 43.988 63.0608 34.7563 65.6696 26.2275C66.2401 24.3721 67.5086 21.022 66.5672 19.2559L65.909 19.5185C61.892 25.8613 59.8577 44.5408 57.4124 52.8568C53.204 46.3651 53.567 35.8098 55.1466 28.5003C56.7183 21.2218 60.2366 13.309 66.7666 9.2143C67.4926 8.76022 68.2465 8.35231 69.0084 7.95712Z" fill="#97A898"/>
<path d="M32.2292 13.2892C35.1966 8.89804 36.9418 6.93565 42.0593 5.4576C43.7427 9.0039 45.2186 12.5343 46.3116 16.3098C46.9299 18.4397 48.0109 26.4035 48.9323 27.5843C45.6614 28.2437 43.3916 29.9991 41.5726 32.7618C40.5602 34.3008 39.7676 36.0546 39.0352 37.7436C38.2251 36.248 36.9139 34.4031 36.586 32.7471C36.9067 32.2723 36.8632 32.1633 36.8249 31.5775C36.5054 26.6741 34.1918 23.1115 30.5913 19.9456C30.7804 17.6657 31.4489 15.4279 32.2292 13.2892Z" fill="#EBB19F"/>
  </symbol>
  <symbol id="Logo" viewBox="0 0 84 36">
    <g clip-path="url(#clip0_8238_18966)">
<path d="M36.0942 0.746564C35.63 1.05672 35.2914 1.44826 34.986 1.91061C33.861 1.92971 32.8027 2.2517 32.0036 3.08152C31.2421 3.87239 30.9824 4.83231 31.0179 5.90736L31.0213 5.98866C31.1629 6.95355 31.5519 7.74408 32.3385 8.33934C32.5247 8.4802 32.9388 8.68514 33.3606 8.89382C33.9044 9.1629 34.4608 9.43821 34.5572 9.5904C34.8891 10.0647 35.7757 10.3416 36.3252 10.4425C37.1853 10.6004 37.9531 10.5296 38.7809 10.2843C39.9612 12.1142 40.4592 14.0359 40.7329 16.1817L40.6353 16.3634C40.3891 16.1469 40.1862 15.8137 39.9849 15.483C39.8419 15.2483 39.6998 15.0148 39.5435 14.8255C37.9737 12.9206 35.5882 11.5732 33.0619 11.7154C32.5626 11.7434 31.4119 11.8597 31.0219 12.1933C30.963 12.6559 31.4691 13.3851 31.7568 13.7534C33.4408 15.9091 36.179 16.4393 38.7268 16.9326C38.9608 16.9779 39.1932 17.0229 39.423 17.0688C39.4399 17.0722 39.4579 17.0756 39.4766 17.0791C39.6718 17.1162 39.9501 17.1691 39.9984 17.3579L39.972 17.427C37.3706 16.9892 34.6544 17.3049 32.4615 18.8769C30.5871 20.2206 29.511 22.3416 29.1477 24.5856C28.7164 27.249 29.1665 30.2298 30.7698 32.4473C32.0661 34.2402 33.9806 35.3777 36.1601 35.7223C38.5688 36.103 41.1862 35.6553 43.1769 34.1978C45.066 32.8145 46.1355 30.7002 46.482 28.4185C46.8989 25.6724 46.5159 22.753 44.8345 20.4799C44.1083 19.4982 43.2514 18.8303 42.2076 18.215C42.185 18.2016 42.1621 18.189 42.1396 18.1764C42.0113 18.1053 41.8913 18.0386 41.8561 17.8779C44.1967 17.0769 46.5118 16.1123 48.3753 14.4358C49.2792 13.6225 50.8548 11.7273 50.9194 10.5281C50.8135 10.3583 50.7804 10.3275 50.5852 10.2701C50.1808 10.1508 49.6713 10.1347 49.2462 10.1256C46.9858 10.0767 45.0776 11.11 43.6732 12.84C43.5899 12.9425 43.4658 13.1356 43.3274 13.3508C43.0579 13.7701 42.7342 14.2734 42.5533 14.3544C42.5372 14.3617 42.5208 14.368 42.5044 14.3743C42.4956 14.3777 42.4868 14.381 42.4781 14.3845C42.6291 13.7618 42.8292 13.1441 43.0291 12.5268C43.1749 12.0764 43.3208 11.6263 43.4474 11.1745L43.5136 11.1223C45.109 9.85523 46.2513 7.94796 46.4729 5.90811C46.6384 4.38965 46.2794 3.06142 45.3233 1.86619C45.1653 1.94833 45.009 2.0331 44.8584 2.12747C43.5045 2.97846 42.775 4.62297 42.4491 6.13564C42.1216 7.65476 42.0463 9.84845 42.9189 11.1976C42.3698 12.9239 41.8371 14.6553 41.3201 16.3913C41.1084 14.1564 40.4459 11.9137 39.2759 9.99559C39.4658 9.82289 39.642 9.63564 39.8024 9.43557C40.4724 8.61021 41.2713 7.02542 41.1605 5.94524C41.0384 5.78834 40.9027 5.05515 40.7872 4.43104C40.7221 4.07904 40.6634 3.76173 40.6171 3.6021C40.3905 2.81743 40.0845 2.08372 39.7355 1.3467C39.3963 0.825798 38.8925 0.40828 38.2731 0.270817C37.5049 0.100354 36.738 0.316641 36.0942 0.746564ZM36.9017 17.9926C37.9868 17.8855 38.9883 17.9933 39.9323 18.5873C41.4558 19.5463 42.1936 21.3413 42.5765 23.0272C43.2332 25.9231 43.2299 30.6291 41.5658 33.2144C40.8884 34.2668 40.015 34.7795 38.8178 35.0392C37.701 35.1593 36.6369 35.0483 35.6796 34.4165C34.1069 33.3787 33.4163 31.4067 33.0524 29.6403C32.4429 26.6817 32.3597 22.4266 34.1134 19.8055C34.8153 18.7564 35.6888 18.2422 36.9017 17.9926Z" fill="#353C3A"/>
<path d="M34.986 1.91061C35.2913 1.44826 35.6298 1.05672 36.0942 0.746563C36.7379 0.316641 37.5049 0.100355 38.2731 0.270819C38.8924 0.408281 39.3962 0.825796 39.7354 1.3467C38.6743 1.65388 38.3124 2.06172 37.6972 2.97433C37.5354 3.41881 37.3968 3.88388 37.3576 4.35772C38.1041 5.01567 38.5838 5.75609 38.65 6.77514C38.658 6.89689 38.667 6.91955 38.6005 7.01823L38.3292 6.938C38.0875 7.11458 38.0269 7.41548 37.9818 7.69752C37.9014 8.20122 37.8896 8.74437 37.8995 9.2541C37.2767 9.07181 36.7283 9.00854 36.08 9.03873C35.5466 9.17073 35.0432 9.32465 34.5571 9.5904C34.386 9.32019 32.7646 8.66182 32.3384 8.33934C31.5518 7.74408 31.1628 6.95355 31.0212 5.98866L31.0178 5.90736C30.9823 4.83231 31.242 3.87239 32.0035 3.08152C32.8026 2.2517 33.8609 1.92971 34.986 1.91061Z" fill="#EAE9E8"/>
<path d="M34.986 1.91061C35.2913 1.44826 35.6298 1.05672 36.0942 0.746563C36.7379 0.316641 37.5049 0.100355 38.2731 0.270819C38.8924 0.408281 39.3962 0.825796 39.7354 1.3467C38.6743 1.65388 38.3124 2.06172 37.6972 2.97433C37.5354 3.41881 37.3968 3.88388 37.3576 4.35772L36.6123 4.05708C36.315 4.06502 35.7293 4.0053 35.4746 4.13383L35.1462 4.29354C35.0195 4.40867 34.8716 4.5822 34.7261 4.66598L34.4509 5.14115L34.2603 5.15289C33.3745 5.13701 32.5382 5.23361 31.7275 5.61614C31.4983 5.72433 31.2578 5.91687 31.0212 5.98866L31.0178 5.90736C30.9823 4.83231 31.242 3.87239 32.0035 3.08152C32.8026 2.2517 33.8609 1.92971 34.986 1.91061Z" fill="#DB8778"/>
<path d="M36.6123 4.05706C36.7479 3.69364 36.8623 3.24676 37.1424 2.96952C37.3952 2.86729 37.4461 2.90079 37.6971 2.97432C37.5353 3.4188 37.3967 3.88387 37.3575 4.35771L36.6123 4.05706Z" fill="#353C3A"/>
<path d="M35.146 4.29353C34.8782 4.10942 34.5703 3.92151 34.3536 3.67611C34.2131 3.51706 34.1395 3.34395 34.1493 3.13188L34.2902 3.06241C34.8831 3.19243 35.1366 3.67743 35.4744 4.13382L35.146 4.29353Z" fill="#353C3A"/>
<path d="M34.26 5.15289C34.1485 5.13908 34.0227 5.12915 33.9145 5.09723C33.7336 5.04388 33.7045 4.96895 33.6357 4.81354C33.7129 4.70535 33.7314 4.6755 33.8538 4.62165C34.1499 4.49155 34.4357 4.55747 34.7258 4.66598L34.4506 5.14115L34.26 5.15289Z" fill="#353C3A"/>
<path d="M35.7377 2.3927C35.8378 2.43596 35.936 2.48757 35.9992 2.58037C36.253 2.95297 36.2105 3.69677 36.1644 4.12852L35.8117 4.02381C35.7634 3.97087 35.726 3.92877 35.6962 3.86269C35.4884 3.40183 35.5742 2.85132 35.7377 2.3927Z" fill="#353C3A"/>
<path d="M34.2606 5.15289L34.4512 5.14114C34.2189 6.0196 34.0937 6.90806 34.58 7.73341C34.927 8.32255 35.49 8.71914 36.0803 9.03873C35.5468 9.17073 35.0435 9.32465 34.5574 9.5904C34.3863 9.32018 32.7649 8.66182 32.3387 8.33934C31.5521 7.74408 31.1631 6.95355 31.0215 5.98866C31.258 5.91687 31.4986 5.72432 31.7277 5.61614C32.5385 5.23361 33.3748 5.13701 34.2606 5.15289Z" fill="#EBB19F"/>
<path d="M42.4783 14.3845C42.5032 14.3745 42.5288 14.3656 42.5536 14.3544C42.8274 14.2318 43.4278 13.1422 43.6735 12.84C45.0779 11.11 46.986 10.0767 49.2464 10.1256C49.6716 10.1347 50.181 10.1507 50.5855 10.2701C50.7807 10.3275 50.8138 10.3583 50.9196 10.5281C50.8551 11.7273 49.2795 13.6225 48.3755 14.4358C46.5121 16.1123 44.197 17.0769 41.8564 17.8778C43.0722 16.3382 44.4948 14.8274 46.0166 13.5896C46.546 13.159 48.7816 11.7908 48.9437 11.5093C48.8718 11.4624 48.8618 11.4326 48.7725 11.4455C46.7511 11.7396 42.8572 15.8925 41.6479 17.4626C41.801 16.3935 42.064 15.3839 42.4783 14.3845Z" fill="#97A898"/>
<path d="M39.9719 17.427L39.9984 17.3579C39.9455 17.151 39.6163 17.1073 39.4229 17.0688C36.6907 16.5229 33.5954 16.107 31.7568 13.7534C31.469 13.3851 30.9629 12.6559 31.0218 12.1933C31.4119 11.8597 32.5625 11.7434 33.0618 11.7154C35.5882 11.5732 37.9737 12.9206 39.5435 14.8255C39.9198 15.2815 40.2143 15.9932 40.6353 16.3634L40.7329 16.1817C40.7759 16.4372 40.7932 16.6383 40.756 16.8977C40.4525 16.8005 39.9728 16.1772 39.6874 15.9513C38.0772 14.6749 35.2529 12.9389 33.1218 13.0001L33.0667 13.0753C33.5975 13.4886 34.4945 13.6529 35.1277 13.8725C37.0377 14.5351 39.1673 15.7914 40.3847 17.4438L40.3193 17.5172C40.2134 17.4932 40.0646 17.4794 39.9719 17.427Z" fill="#97A898"/>
<path d="M45.3231 1.86618C46.2792 3.06141 46.6381 4.38963 46.4727 5.90809C46.2511 7.94795 45.1088 9.85522 43.5134 11.1222L43.4472 11.1745C43.8161 9.35441 44.0899 7.43581 44.6308 5.66327C44.7491 5.27768 45.0121 4.58144 44.8169 4.21437L44.6804 4.26896C43.8475 5.58718 43.4257 9.4693 42.9187 11.1976C42.0461 9.84843 42.1214 7.65474 42.4489 6.13562C42.7748 4.62296 43.5043 2.97845 44.8582 2.12746C45.0088 2.03309 45.1651 1.94831 45.3231 1.86618Z" fill="#97A898"/>
<path d="M37.697 2.97434C38.3123 2.06173 38.6741 1.65389 39.7352 1.34671C40.0843 2.08373 40.3903 2.81744 40.6169 3.60211C40.7451 4.04476 40.9692 5.69986 41.1603 5.94525C40.4821 6.0823 40.0115 6.44713 39.6343 7.0213C39.4244 7.34114 39.2601 7.70563 39.1082 8.05665C38.9402 7.74583 38.6684 7.36239 38.6004 7.01824C38.6669 6.91957 38.6579 6.8969 38.6499 6.77516C38.5837 5.7561 38.104 5.01569 37.3574 4.35773C37.3966 3.88389 37.5352 3.41882 37.697 2.97434Z" fill="#EBB19F"/>
<path d="M70.0526 17.2833C69.405 17.2641 68.7599 17.2997 68.1148 17.3536C66.5474 17.6697 64.6649 18.2041 63.727 19.614C63.2589 20.3177 63.0504 21.1868 63.2167 22.0219C63.3391 22.6354 63.6675 23.1961 64.1985 23.5408C64.6897 23.8595 65.3953 24.005 65.9701 23.8762C66.4473 23.7692 66.8534 23.4596 67.1107 23.0472C67.4026 22.579 67.4878 21.985 67.3621 21.4498C67.2844 21.1196 67.0587 20.8596 66.8393 20.607C66.475 20.1874 66.1281 19.7879 66.506 19.1198C66.8137 18.5767 67.5432 18.253 68.1222 18.1194C69.0171 17.9128 70.0865 17.9759 70.8772 18.4777C71.6506 18.9685 72.0823 19.775 72.2733 20.6525C72.5091 21.741 72.5645 23.329 71.9301 24.2795C71.3546 25.142 69.8905 25.4807 68.2456 25.8611C65.8883 26.4065 63.1597 27.0377 62.1439 29.4198C61.7532 30.3354 61.8702 31.2753 61.9583 31.9829C62.0072 32.3763 62.0472 32.6978 61.986 32.9034C61.9967 32.9175 62.0075 32.9315 62.0182 32.9457C62.1454 33.117 62.2483 33.3018 62.3513 33.4868C62.4265 33.6217 62.5017 33.7568 62.5865 33.8869C63.2928 34.9727 64.2456 35.4446 65.5052 35.6386C67.4059 35.9315 69.5133 35.5142 71.0724 34.3593C71.4446 34.0835 72.1328 33.4638 72.2063 32.9855C72.2127 32.9939 72.219 33.0022 72.2251 33.0106L72.2328 33.0217C72.4607 33.3633 72.542 33.705 72.6184 34.0264C72.7791 34.7023 72.9184 35.2882 74.3551 35.5937C75.4328 35.8229 77.1019 35.7068 78.0581 35.0711C78.2541 34.9412 78.4559 34.7388 78.4939 34.4984C78.4989 34.4668 78.5002 34.4433 78.5001 34.4182C78.5001 34.3983 78.4993 34.3773 78.4989 34.3504C78.4827 34.3353 78.4691 34.3219 78.4571 34.3101C78.386 34.2405 78.3728 34.2274 78.2433 34.2308C78.0537 34.2356 77.8595 34.2704 77.6653 34.305C77.1717 34.3933 76.6791 34.4813 76.2666 34.0784C75.6546 33.4808 75.6664 32.0974 75.6738 31.2099C75.6744 31.1414 75.6749 31.0758 75.6752 31.0137C75.6901 29.0948 75.6942 27.1758 75.6884 25.2567C75.681 20.9183 75.542 17.4465 70.0526 17.2833ZM72.0152 25.2935L72.2518 25.2862L72.323 25.3853C72.3911 25.9372 72.3716 26.4921 72.3521 27.0469C72.3431 27.301 72.3342 27.555 72.3337 27.8087C72.3329 28.1434 72.3443 28.4842 72.3557 28.8271C72.383 29.6472 72.4108 30.4805 72.275 31.2717C72.1989 31.7187 72.0351 32.1466 71.7944 32.5311C71.2651 33.3748 70.3908 33.8995 69.429 34.1048C68.29 34.3479 67.396 34.0962 66.4382 33.482C66.3799 33.3785 66.3236 33.2797 66.2694 33.1846C65.7093 32.202 65.3748 31.6154 65.4879 30.3037C65.7009 27.8267 68.1625 26.9063 70.1833 26.1509L70.3387 26.0927L70.4471 26.052C70.523 26.0234 70.607 25.9934 70.6957 25.9617L70.697 25.9612C71.1212 25.8097 71.6554 25.6188 71.9458 25.3586C71.9555 25.3501 71.9648 25.3414 71.9741 25.3327C71.9878 25.3196 72.0014 25.3064 72.0152 25.2935Z" fill="#353C3A"/>
<path d="M70.3688 26.0812C70.3439 26.0905 70.319 26.0999 70.2939 26.1092L70.3382 26.0927L70.3688 26.0812Z" fill="#EAE9E8"/>
<path d="M13.4355 7.50124C13.8363 7.45732 14.2714 7.47212 14.6734 7.51174C16.2225 7.65193 17.6511 8.4064 18.6404 9.60668C19.3009 10.4222 19.6856 11.411 19.5651 12.4682C19.4947 13.087 19.2635 13.6851 18.7614 14.0792C18.2249 14.5004 17.4562 14.7093 16.7799 14.6258C16.2104 14.5555 15.7133 14.2543 15.366 13.7995C15.0568 13.3946 14.9222 12.7918 14.9978 12.2903C15.1638 11.1887 16.3175 11.0874 17.0498 10.5324C17.2465 10.3834 17.3291 10.2322 17.3646 9.99061C17.3198 9.70841 17.2049 9.5243 17.015 9.31976C16.3105 8.56074 15.238 8.21063 14.2225 8.18524C13.3478 8.16324 12.4818 8.39648 11.8469 9.02391C10.3306 10.5219 10.7465 15.2493 10.751 17.3C11.7662 17.3095 17.5785 17.13 18.1023 17.5156C18.1537 17.6863 18.1312 17.7852 18.0873 17.9558C17.6895 18.2279 11.763 18.0838 10.7452 18.0985L10.7536 23.9641C11.2766 23.9651 11.8021 23.9718 12.3246 23.95C16.0043 23.7963 14.9027 21.1401 15.7871 20.2604C15.8797 20.1682 15.9279 20.1934 16.0558 20.1934C16.3119 20.5331 16.1963 26.8836 16.1961 27.8368C16.199 28.0605 16.1829 28.2794 16.1645 28.5021L16.0065 28.631C15.8018 28.6335 15.7515 28.6653 15.5915 28.5285C15.4664 27.4982 15.171 26.1913 14.402 25.4523C13.4485 24.5359 11.9694 24.7281 10.7535 24.7436C10.7464 26.494 10.3594 32.8718 11.4812 34.0878C12.0951 34.7534 13.2202 34.6655 13.6526 35.2072L13.6334 35.3257C13.393 35.4588 13.0979 35.4663 12.8286 35.4774C12.0553 35.5094 5.10907 35.4925 4.72745 35.3765C4.65103 35.3534 4.68047 35.349 4.6014 35.3591C4.58643 35.361 4.57196 35.3655 4.55732 35.3687L4.51861 35.2774C4.62315 34.8859 6.21348 34.5763 6.6683 34.1016C7.66519 33.0609 7.30425 26.5511 7.29432 24.7568C6.59394 24.7456 5.19261 24.9902 4.66666 24.5583C4.5689 24.3674 4.54177 24.3319 4.56385 24.1218C4.95242 23.7743 6.73472 23.9404 7.28755 23.9387C7.29648 21.9826 7.29515 20.0265 7.28357 18.0703C6.43274 18.0862 5.29227 18.236 4.52043 17.8288L4.5 17.585C5.03058 17.1421 6.59849 17.3049 7.2887 17.3104C7.25785 14.77 7.29457 11.7446 8.97952 9.66391C10.0948 8.28664 11.7271 7.67947 13.4355 7.50124Z" fill="#353C3A"/>
<path d="M25.7539 6.21436L25.8494 6.23313C25.9792 6.38515 25.9795 6.4667 25.9895 6.66041C26.0982 8.76527 25.9813 10.938 25.9805 13.0505L25.9769 26.4146C25.9767 28.019 25.7464 32.3346 26.2565 33.5939C26.8226 34.9917 28.1452 34.5504 28.5716 35.2071L28.5049 35.3821C28.1188 35.5323 21.4814 35.4513 20.4106 35.4842C20.3258 35.484 20.3425 35.4933 20.2794 35.4682C20.1169 35.4037 20.1212 35.3396 20.0532 35.1898C20.2138 34.6383 21.3938 34.8608 21.875 34.3254C22.2921 33.8614 22.4546 33.2445 22.5309 32.6411C22.689 31.3903 22.6405 30.1052 22.64 28.8465L22.6352 23.5465L22.6315 15.9571C22.6335 14.2722 22.676 12.5773 22.595 10.8943C22.5059 9.04334 22.5687 8.69811 20.739 8.13189C20.5542 8.07465 20.2915 8.01295 20.1545 7.86845C20.0682 7.77747 20.0939 7.74654 20.0918 7.62918L20.1688 7.63894C20.3135 7.47095 20.9779 7.43481 21.2102 7.40529C22.7993 7.20298 24.3141 6.94674 25.7539 6.21436Z" fill="#353C3A"/>
<path d="M52.7399 17.1825L52.9889 17.2138C53.0087 17.2449 53.041 17.2898 53.0551 17.3266C53.2403 17.8098 53.1386 21.0456 52.9517 21.4859C53.2188 21.2536 53.3338 20.9255 53.4926 20.6169C54.0542 19.526 54.7481 18.5688 55.8688 17.9962C57.0334 17.4011 58.5445 17.0911 59.8074 17.5161C60.5088 17.7521 61.0754 18.2362 61.3971 18.905C61.7321 19.6026 61.7982 20.4239 61.5286 21.1544C61.3086 21.7489 60.8669 22.2791 60.2847 22.5449C59.733 22.7968 59.121 22.7751 58.5627 22.5522C57.9986 22.3268 57.5205 21.9239 57.2906 21.3521C56.8473 20.2525 57.4436 19.8548 57.7869 18.9507C57.8539 18.7758 57.8414 18.7218 57.7645 18.5578C57.5288 18.4442 57.2815 18.4928 57.0375 18.5513C53.931 19.2963 53.2023 22.9677 53.1394 25.7076C53.1237 26.3825 53.1485 28.7481 53.1485 28.7481C53.1485 28.7481 53.1229 31.0219 53.1485 31.675C53.2106 33.2621 53.3197 34.3382 55.0169 34.8473C55.265 34.9218 55.581 34.9681 55.7704 35.1543C55.8209 35.2036 55.796 35.2934 55.7952 35.361C55.7762 35.3754 55.7572 35.3908 55.7381 35.4045C55.6331 35.4768 47.7286 35.5042 47.2902 35.3944L47.2373 35.2123C47.4201 34.5224 48.7484 34.8678 49.2604 34.2161C49.5151 33.8917 49.6135 33.4689 49.6714 33.0691C49.9833 30.9234 49.8327 28.6048 49.8277 26.4325C49.8236 24.6329 49.9386 22.716 49.6938 20.938C49.3538 18.4639 48.4531 19.6255 47.43 18.8462C47.3407 18.6509 47.3548 18.6301 47.4036 18.4178C49.1462 18.0878 51.0808 18.073 52.6829 17.2137L52.7399 17.1825Z" fill="#353C3A"/>
</g>
<defs>
<clipPath id="clip0_8238_18966">
<rect width="74" height="35.6389" fill="white" transform="translate(4.5 0.212463)"/>
</clipPath>
</defs>
  </symbol>
</svg>