<svg xmlns="http://www.w3.org/2000/svg">
  <symbol id="icon-logo" viewBox="0 0 294 126">
    <path
      fill="#353C3A"
      d="M42 25c8-13 28-12 34 4 5 13-3 28-13 38 18 7 31 24 31 44H79c0-17-14-31-31-31s-31 14-31 31H2c0-21 14-39 33-45-11-11-15-28-7-41 3-5 8-9 14-12Z"
    />
    <path fill="#DB8778" d="M43 20c6 9 5 22-3 29-8-8-9-21-3-30 2-3 4-3 6 1Z" />
    <path
      fill="#EBB19F"
      d="M52 18c12 2 20 13 18 25-12-1-22-10-22-22 0-3 1-4 4-3Z"
    />
    <path fill="#97A898" d="M57 69c22-20 48-24 62-16-11 20-34 31-61 30Z" />
    <text
      x="116"
      y="88"
      fill="#353C3A"
      font-family="Hanuman, serif"
      font-size="76"
      font-weight="400"
    >
      Flora
    </text>
  </symbol>
  <symbol id="icon-menu" viewBox="0 0 24 24">
    <path
      fill="currentColor"
      d="M4 6h16v2H4V6Zm0 5h16v2H4v-2Zm0 5h16v2H4v-2Z"
    />
  </symbol>
  <symbol id="icon-close" viewBox="0 0 24 24">
    <path
      fill="currentColor"
      d="m16.2 6.34-4.25 4.25-4.24-4.25-1.41 1.42L10.54 12 6.3 16.24l1.41 1.42 4.24-4.25 4.25 4.25 1.41-1.42L13.36 12l4.25-4.24-1.41-1.42Z"
    />
  </symbol>
  <symbol id="icon-arrow-left" viewBox="0 0 24 24">
    <path
      fill="currentColor"
      d="M12.71 17.29 8.41 13H18v-2H8.41l4.3-4.29-1.42-1.42L4.59 12l6.7 6.71 1.42-1.42Z"
    />
  </symbol>
  <symbol id="icon-arrow-right" viewBox="0 0 24 24">
    <path
      fill="currentColor"
      d="m11.29 17.29 1.42 1.42 6.7-6.71-6.7-6.71-1.42 1.42L15.59 11H6v2h9.59l-4.3 4.29Z"
    />
  </symbol>
  <symbol id="icon-flower" viewBox="0 0 96 85">
    <path
      fill="#353C3A"
      d="M19.15 8.17C23.5 1.59 29.93-1.04 35.01.28c6.42 1.67 9.36 9.61 11.3 16.03.9 2.98 1.7 8.83 2.62 11.27 1.52 4.06-3.97 13.17-9.09 19.49 5.64 9.23 8.84 20.02 9.86 30.77 2.49-8.35 5.06-16.68 7.71-24.98-4.2-6.49-3.84-17.05-2.26-24.36 1.57-7.28 5.09-15.19 11.62-19.29.73-.45 1.48-.86 2.24-1.25 4.61 5.75 6.34 12.14 5.55 19.45-1.07 9.82-6.58 18.99-14.27 25.09l-.32.25c-.61 2.17-1.31 4.34-2.02 6.51-.96 2.97-1.93 5.94-2.66 8.94l.36-.15c.87-.39 2.43-2.81 3.73-4.83.67-1.04 1.27-1.97 1.67-2.46 6.77-8.32 15.98-13.3 26.88-13.06 2.05.04 4.51.12 6.46.69.94.28 1.1.43 1.61 1.24-.31 5.77-7.91 14.89-12.27 18.8C74.74 76.5 63.58 81.15 52.29 85l-9.09-2.17.13-.33c-.23-.91-1.58-1.16-2.52-1.34-13.25-2.64-28.5-4.56-37.23-16-1.39-1.77-3.83-5.28-3.54-7.51 1.88-1.61 7.43-2.17 9.84-2.3 12.18-.68 23.69 5.8 31.26 14.96 1.82 2.2 3.24 5.62 5.27 7.4l.47-.87c-1.32-10.32-3.72-19.57-9.41-28.38-3.99 1.18-7.7 1.52-11.85.76-2.65-.49-6.93-1.82-8.53-4.1-.82-1.3-8.65-4.47-10.7-6.02C2.59 36.24.72 32.44.03 27.79l-.02-.39c-.17-5.17 1.08-9.79 4.76-13.6 3.85-3.99 8.96-5.54 14.38-5.63Z"
    />
    <path
      fill="#DB8778"
      d="M19.15 8.17c4.35-6.58 10.78-9.21 15.86-7.89 2.99.66 5.42 2.67 7.05 5.18-5.12 1.48-6.86 3.44-9.83 7.83-.78 2.14-1.45 4.38-1.64 6.66l-3.59-1.45c-1.43.04-4.26-.25-5.49.37l-1.58.77c-.61.55-1.32 1.39-2.02 1.79l-1.33 2.29-.92.05c-4.27-.07-8.3.39-12.21 2.23-1.11.52-2.27 1.45-3.41 1.79l-.02-.39c-.17-5.17 1.08-9.79 4.76-13.6 3.85-3.99 8.95-5.54 14.37-5.63Z"
    />
    <path
      fill="#97A898"
      d="M55.29 68.19c.12-.05.24-.09.36-.14 1.32-.59 4.22-5.83 5.4-7.29 6.77-8.32 15.98-13.3 26.88-13.06 2.05.04 4.51.12 6.46.69.94.28 1.1.43 1.61 1.24-.31 5.77-7.91 14.89-12.27 18.8C74.74 76.5 63.58 81.15 52.29 85c5.86-7.41 12.72-14.68 20.06-20.63 2.55-2.07 13.34-8.65 14.12-10.01-.35-.23-.39-.37-.83-.31-9.75 1.41-28.53 21.4-34.36 28.95.74-5.14 2-10 4.01-14.81Z"
    />
  </symbol>
  <symbol id="icon-phone" viewBox="0 0 24 24">
    <path
      fill="currentColor"
      d="M17.71 12.29a1 1 0 0 0-1.42 0l-1.59 1.6c-.74-.22-2.12-.72-2.99-1.6-.88-.87-1.38-2.25-1.6-2.99l1.6-1.59a1 1 0 0 0 0-1.42l-4-4a1 1 0 0 0-1.42 0L3.58 5c-.38.38-.59.9-.58 1.44.02 1.42.4 6.37 4.29 10.27 3.9 3.9 8.85 4.27 10.27 4.3h.03c.53 0 1.03-.21 1.41-.59l2.71-2.71a1 1 0 0 0 0-1.42l-4-4Zm-.13 6.72c-1.25-.03-5.52-.36-8.87-3.72-3.37-3.36-3.69-7.65-3.71-8.87L7 4.41 9.59 7 8.29 8.29a1 1 0 0 0-.27.91c.02.12.61 2.85 2.27 4.51s4.39 2.25 4.51 2.27a1 1 0 0 0 .91-.27L17 14.41 19.59 17l-2.01 2.01Z"
    />
  </symbol>
  <symbol id="icon-map" viewBox="0 0 24 24">
    <path
      fill="currentColor"
      d="M12 14a4 4 0 1 0 0-8 4 4 0 0 0 0 8Zm0-6a2 2 0 1 1 0 4 2 2 0 0 1 0-4Z"
    />
    <path
      fill="currentColor"
      d="M11.42 21.81a1 1 0 0 0 1.16 0c.3-.21 7.45-5.37 7.42-11.81a8 8 0 0 0-16 0c-.03 6.44 7.12 11.6 7.42 11.81ZM12 4a6 6 0 0 1 6 6.01c.02 4.43-4.39 8.42-6 9.72-1.61-1.3-6.02-5.29-6-9.73A6 6 0 0 1 12 4Z"
    />
  </symbol>
  <symbol id="icon-facebook" viewBox="0 0 24 24">
    <path
      fill="currentColor"
      d="M22 12.3C22 6.75 17.52 2.24 12 2.24S2 6.75 2 12.3c0 5.02 3.66 9.18 8.44 9.94v-7.03H7.9V12.3h2.54v-2.22c0-2.52 1.49-3.91 3.77-3.91 1.1 0 2.24.2 2.24.2v2.48h-1.26c-1.24 0-1.63.77-1.63 1.57v1.88h2.78l-.44 2.91h-2.34v7.03A10.02 10.02 0 0 0 22 12.3Z"
    />
  </symbol>
  <symbol id="icon-instagram" viewBox="0 0 24 24">
    <path
      fill="currentColor"
      d="M12 4.62c2.4 0 2.69.01 3.63.05.88.04 1.36.19 1.67.31.42.16.72.36 1.04.67.31.32.51.62.67 1.04.13.32.27.79.31 1.67.04.95.05 1.23.05 3.63 0 2.4-.01 2.69-.05 3.64-.04.88-.18 1.35-.31 1.67-.16.42-.36.72-.67 1.03-.32.32-.62.51-1.04.68-.31.12-.79.27-1.67.31-.95.04-1.23.05-3.63.05-2.4 0-2.69-.01-3.64-.05-.88-.04-1.35-.19-1.67-.31a2.78 2.78 0 0 1-1.03-.68 2.8 2.8 0 0 1-.68-1.03c-.12-.32-.27-.79-.31-1.67-.04-.95-.05-1.23-.05-3.64 0-2.4.01-2.68.05-3.63.04-.88.19-1.35.31-1.67.16-.42.36-.72.67-1.04.32-.31.62-.51 1.04-.67.32-.12.79-.27 1.67-.31.95-.04 1.23-.05 3.64-.05ZM12 3c-2.44 0-2.75.01-3.71.05-.96.05-1.61.2-2.18.42-.6.23-1.1.54-1.6 1.04a4.43 4.43 0 0 0-1.04 1.59c-.22.58-.37 1.23-.42 2.19C3.01 9.25 3 9.56 3 12s.01 2.75.05 3.71c.05.96.2 1.61.42 2.18.23.6.54 1.1 1.04 1.6.5.5 1 .8 1.59 1.04.58.22 1.23.37 2.19.42.96.04 1.27.05 3.71.05s2.75-.01 3.71-.05c.96-.05 1.61-.2 2.18-.42a4.4 4.4 0 0 0 1.6-1.04 4.4 4.4 0 0 0 1.04-1.59c.22-.58.37-1.23.42-2.19.04-.96.05-1.27.05-3.71s-.01-2.75-.05-3.71a6.5 6.5 0 0 0-.42-2.18 4.13 4.13 0 0 0-1.04-1.6c-.5-.5-1-.81-1.59-1.04a6.5 6.5 0 0 0-2.19-.42C14.75 3.01 14.44 3 12 3Z"
    />
    <path
      fill="currentColor"
      d="M12 7.38a4.62 4.62 0 1 0 0 9.24 4.62 4.62 0 0 0 0-9.24Zm0 7.62a3 3 0 1 1 0-6 3 3 0 0 1 0 6Zm5.88-7.81a1.08 1.08 0 1 1-2.16 0 1.08 1.08 0 0 1 2.16 0Z"
    />
  </symbol>
  <symbol id="icon-x" viewBox="0 0 24 24">
    <path
      fill="currentColor"
      d="M17.18 4.24h2.76l-6.03 6.78L21 20.24h-5.55l-4.36-5.59-4.97 5.59H3.36l6.45-7.25L3 4.24h5.7l3.93 5.12 4.55-5.12Zm-.97 14.38h1.53L7.86 5.78H6.22l9.99 12.84Z"
    />
  </symbol>
</svg>
